<svg xmlns="http://www.w3.org/2000/svg" xmlns:xlink="http://www.w3.org/1999/xlink" viewBox="0 0 1001.51 533.64"><defs><style>.cls-1,.cls-10,.cls-11,.cls-2,.cls-8,.cls-9{fill:none;stroke:#000;stroke-miterlimit:10;}.cls-1{stroke-width:1.24px;}.cls-2{stroke-width:2px;}.cls-3{font-size:14.5px;font-family:SourceSansPro-SemiBold, Source Sans Pro;font-weight:600;}.cls-4{letter-spacing:-0.01em;}.cls-5{letter-spacing:-0.02em;}.cls-6{letter-spacing:-0.04em;}.cls-7{letter-spacing:-0.03em;}.cls-8{stroke-width:1.99px;}.cls-9{stroke-width:2px;}.cls-10{stroke-width:2px;}.cls-11{stroke-width:2px;}</style><symbol id="dør" data-name="dør" viewBox="0 0 18.89 14.72"><line class="cls-1" x1="0.62" y1="14.11" x2="17.89" y2="14.11"/><path class="cls-2" d="M17.89,14.11C17.89,6.86,10.16,1,.62,1"/><line class="cls-1" x1="0.62" y1="1" x2="0.62" y2="14.11"/></symbol></defs><title>overetage</title><g id="Lag_1" data-name="Lag 1"><use width="18.89" height="14.73" transform="matrix(1, 0, 0, 0.56, 829.05, 123.27)" xlink:href="#dør"/><use width="18.89" height="14.73" transform="matrix(1, 0, 0, 0.56, 536.49, 123.27)" xlink:href="#dør"/><use width="18.89" height="14.73" transform="matrix(1, 0, 0, 0.56, 446.18, 72.47)" xlink:href="#dør"/><use width="18.89" height="14.73" transform="matrix(0, 1, -0.56, 0, 475.01, 98.98)" xlink:href="#dør"/><use width="18.89" height="14.73" transform="matrix(1, 0, 0, 0.56, 405.31, 123.27)" xlink:href="#dør"/><use width="18.89" height="14.73" transform="matrix(0, 1, -0.56, 0, 375.26, 85.18)" xlink:href="#dør"/><use width="18.89" height="14.73" transform="matrix(1, 0, 0, 0.56, 270.7, 126.44)" xlink:href="#dør"/><use width="18.89" height="14.73" transform="matrix(1, 0, 0, 0.56, 91.06, 126.41)" xlink:href="#dør"/><use width="18.89" height="14.73" transform="matrix(1, 0, 0, 0.56, 58.77, 126.39)" xlink:href="#dør"/><use width="18.89" height="14.73" transform="matrix(-1, 0, 0, 0.56, 58.46, 126.36)" xlink:href="#dør"/><text class="cls-3" transform="translate(835.65 64.79)">N226</text><text class="cls-3" transform="translate(607.25 66.53)">N230</text><text class="cls-3" transform="translate(487.7 66.53)">N231<tspan class="cls-4" x="-9.6" y="14.4">K</tspan><tspan x="-2.42" y="14.4">on</tspan><tspan class="cls-5" x="13.73" y="14.4">t</tspan><tspan x="19.87" y="14.4">or</tspan></text><text class="cls-3" transform="translate(412.45 66.6)">N231B</text><text x="-238.73" y="-169.61"/><text class="cls-3" transform="translate(934.04 239.84)">N226</text><text class="cls-3" transform="translate(825.44 310.4)">N225</text><text class="cls-3" transform="translate(732.41 310.48)">N223</text><text class="cls-3" transform="translate(646.02 310.27)">N221</text><text class="cls-3" transform="translate(532.52 309.81)">N219</text><text class="cls-3" transform="translate(418.98 309.84)">N218</text><text class="cls-3" transform="translate(313.58 309.7)">N215</text><text class="cls-3" transform="translate(192.28 310.05)">N215a</text><text class="cls-3" transform="translate(79.74 310.05)">N214</text><text class="cls-3" transform="translate(354.86 66.6)">N234</text><text class="cls-3" transform="translate(305.4 66.49)">N235</text><text class="cls-3" transform="translate(251.33 66.49)">N236</text><text class="cls-3" transform="translate(144.01 66.07)">N237</text><text class="cls-3" transform="translate(27.22 67.58)"><tspan class="cls-6">T</tspan><tspan class="cls-7" x="6.02" y="0">r</tspan><tspan x="10.19" y="0">appe </tspan></text></g><g id="Lag_2" data-name="Lag 2"><rect class="cls-8" x="710.09" y="1" width="290.42" height="130.63"/><rect class="cls-2" x="533.82" y="1" width="176.27" height="130.63"/><rect class="cls-2" x="705.38" y="170.61" width="67.17" height="130.63" transform="translate(1239.2 302.25) rotate(180)"/><rect class="cls-2" x="892.82" y="196.49" width="107.69" height="230.11"/><rect class="cls-2" x="1022.76" y="421.44" width="108.79" height="174.77" transform="translate(1915.58 848.03) rotate(180)"/><rect class="cls-2" x="708.97" y="251.82" width="75.07" height="174.77"/><rect class="cls-2" x="840.65" y="421.44" width="107.04" height="174.77" transform="translate(1549.61 848.03) rotate(180)"/><rect class="cls-2" x="381.65" y="199.79" width="107.81" height="226.81"/><rect class="cls-2" x="489.47" y="199.79" width="112.45" height="226.81"/><rect class="cls-2" x="271.85" y="251.82" width="109.81" height="174.77"/><rect class="cls-2" x="145.24" y="251.82" width="126.61" height="174.77"/><rect class="cls-2" x="343.26" y="196.97" width="38.4" height="54.85"/><path class="cls-2" d="M569.91,366.58" transform="translate(-238.73 -169.61)"/><polyline class="cls-2" points="331.18 196.97 343.26 196.97 343.26 251.59 305.32 251.59 305.32 196.97 317.2 196.97"/><rect class="cls-2" x="185.01" y="196.97" width="65.44" height="54.85"/><rect class="cls-2" x="145.24" y="180.02" width="39.77" height="71.8"/><rect class="cls-2" x="80.73" y="180.02" width="64.51" height="71.8"/><path class="cls-2" d="M307.78,359.46" transform="translate(-238.73 -169.61)"/><polyline class="cls-2" points="69.05 189.85 80.73 189.85 80.73 251.82 40.59 251.82 40.59 189.85 55.27 189.85"/><rect class="cls-2" x="40.59" y="251.82" width="104.65" height="174.77"/><rect class="cls-2" x="1.16" y="252.29" width="39.43" height="174.31"/><rect class="cls-2" x="1.16" y="189.85" width="39.43" height="61.97"/><rect class="cls-2" x="637.71" y="170.61" width="67.67" height="79.85" transform="translate(1104.36 251.46) rotate(180)"/><rect class="cls-2" x="584.73" y="170.61" width="52.98" height="79.85" transform="translate(983.71 251.46) rotate(180)"/><rect class="cls-2" x="531.41" y="170.96" width="52.98" height="79.5" transform="translate(877.06 251.81) rotate(180)"/><rect class="cls-9" x="465.33" y="170.96" width="65.74" height="132.76" transform="translate(757.66 305.07) rotate(180)"/><rect class="cls-10" x="326.13" y="170.96" width="138.7" height="132.76" transform="translate(552.23 305.07) rotate(180)"/><rect class="cls-11" x="239.88" y="170.96" width="86.61" height="132.76" transform="translate(327.65 305.07) rotate(180)"/><line class="cls-2" x1="1000.51" y1="64.79" x2="1000.51" y2="196.49"/><path class="cls-2" d="M705.38,301.25" transform="translate(-238.73 -169.61)"/><rect class="cls-2" x="637.64" y="251.1" width="34.83" height="50.15" transform="translate(1071.37 382.73) rotate(180)"/><rect class="cls-2" x="605.76" y="251.17" width="31.88" height="50.08" transform="translate(1004.67 382.8) rotate(180)"/><line class="cls-2" x1="87.4" y1="134.11" x2="87.41" y2="134.11"/><rect class="cls-2" x="854.61" y="189.81" width="38.2" height="62.01"/><rect class="cls-2" x="816.68" y="189.81" width="37.93" height="62.01"/><line class="cls-2" x1="175.94" y1="531.79" x2="176.35" y2="533.4"/><use width="18.89" height="14.73" transform="translate(8.52 262.29) rotate(90) scale(1 0.56)" xlink:href="#dør"/><use width="18.89" height="14.73" transform="matrix(0, -1, 0.56, 0, 32.22, 231.7)" xlink:href="#dør"/><use width="18.89" height="14.73" transform="matrix(-1, 0, 0, -0.56, 70.99, 260.19)" xlink:href="#dør"/><use width="18.89" height="14.73" transform="matrix(-1, 0, 0, -0.56, 135.78, 187.7)" xlink:href="#dør"/><use width="18.89" height="14.73" transform="matrix(-1, 0, 0, -0.55, 175.18, 187.63)" xlink:href="#dør"/><use width="18.89" height="14.73" transform="matrix(-1, 0, 0, -0.56, 371.68, 205.34)" xlink:href="#dør"/><use width="18.89" height="14.73" transform="matrix(-1, 0, 0, -0.53, 217.77, 203.96)" xlink:href="#dør"/><use width="18.89" height="14.73" transform="matrix(-1, 0, 0, -0.56, 268.69, 260.19)" xlink:href="#dør"/><use width="18.89" height="14.73" transform="matrix(-1, 0, 0, -0.56, 296.84, 260.19)" xlink:href="#dør"/><use width="18.89" height="14.73" transform="matrix(-1, 0, 0, -0.56, 333.52, 205.34)" xlink:href="#dør"/><use width="18.89" height="14.73" transform="matrix(-1, 0, 0, -0.56, 478.22, 208.16)" xlink:href="#dør"/><use width="18.89" height="14.73" transform="matrix(-1, 0, 0, -0.56, 536.91, 208.16)" xlink:href="#dør"/><use width="18.89" height="14.73" transform="matrix(-1, 0, 0, -0.56, 624.49, 260.19)" xlink:href="#dør"/><use width="18.89" height="14.73" transform="matrix(-1, 0, 0, -0.56, 729.86, 260.19)" xlink:href="#dør"/><use width="18.89" height="14.73" transform="matrix(-1, 0, 0, -0.56, 805.88, 260.19)" xlink:href="#dør"/><use width="18.89" height="14.73" transform="matrix(-1, 0, 0, -0.56, 844.88, 198.18)" xlink:href="#dør"/><use width="18.89" height="14.73" transform="matrix(-1, 0, 0, -0.56, 882.94, 198.18)" xlink:href="#dør"/><use width="18.89" height="14.73" transform="matrix(-1, 0, 0, -0.56, 955.89, 204.86)" xlink:href="#dør"/><line class="cls-2" x1="433.74" y1="131.63" x2="445.94" y2="131.63"/><line class="cls-2" x1="466.65" y1="131.63" x2="456.47" y2="131.63"/><use width="18.89" height="14.73" transform="matrix(1, 0, 0, 0.56, 346.77, 72.28)" xlink:href="#dør"/><use width="18.89" height="14.73" transform="matrix(-1, 0, 0, 0.51, 340.4, 72.95)" xlink:href="#dør"/></g></svg>